<svg xmlns="http://www.w3.org/2000/svg" viewBox="0 0 226 226"><defs><style>.cls-1{fill:none;}.cls-2{fill:#468a76;}.cls-3{fill:#35695a;}.cls-4{fill:#235149;}</style></defs><g id="Layer_2" data-name="Layer 2"><g id="Layer_1-2" data-name="Layer 1"><path class="cls-1" d="M17.23,45.91c6.86-4.74,21.63-9.47,29-7.89S71,42.77,75.78,43.82s1-6.32,6.86-2.63S100,39.61,104.26,38s16.88,4.2,20.57,2.62,8.68,10.4,19.59,10c2.92-4.74,4.92-8.4,5.21-9.53,1.05-4.22,11.6-3.69,13.71-9s11.08-9,23.74-5.81c.09,0,32.41-1,38.92-1.14V0H0V49.62C4.05,49,16.52,46.4,17.23,45.91Z"/><path class="cls-2" d="M32.9,82.9c6.6-1.88,32.76-6.19,37.88,0,6.19,7.48,36.78-1.92,43.87-.45,5.4,1.11,16.74-8.33,24.51-31.61-10.51.65-15.42-20.65-18.87-17.91s-15.76-7.49-19.82-4.66S85.22,40.5,79.63,33.91s-2,6.59-6.61,4.71S51.67,31.09,44.56,28.27s-21.35,5.61-28,14.08C15.92,43.22,3.9,47.8,0,49v95.55C16.67,135.62,29.82,83.78,32.9,82.9Z"/><path class="cls-3" d="M226,15.23c-6.51.18-38.83,1.17-38.92,1.14-12.66-3.16-21.63.53-23.74,5.81s-12.66,4.74-13.71,9c-.29,1.13-2.29,4.79-5.21,9.53C136.36,53.72,124.58,54,119,53.39c-7.36-.83-39.1,4.44-45.52.25-5.32-3.47-32.46-1-39.32,0C30.94,54.13,17.3,88.18,0,93.17V226H226Z"/><path class="cls-4" d="M200.1,149.41c-11.37,10.22-39.15,34.93-71.49,9.25-44.33-35.2.71-11.93-128.61,6.24V226H226V81.53C218.11,94.81,209.57,140.88,200.1,149.41Z"/></g></g></svg>