<?xml version="1.0" encoding="UTF-8"?>
<svg id="Layer_2" xmlns="http://www.w3.org/2000/svg" version="1.1" viewBox="0 0 157.9 93.2">
  <!-- Generator: Adobe Illustrator 29.1.0, SVG Export Plug-In . SVG Version: 2.1.0 Build 142)  -->
  <defs>
    <style>
      .st0 {
        fill: #35695a;
      }
    </style>
  </defs>
  <g id="Layer_1-2">
    <g>
      <g>
        <path class="st0" d="M46.6,25.2v4.8h-18.8V.5h18.4v4.8h-12.7v7.3h10.5v4.8h-10.5v7.8h13.1Z"/>
        <path class="st0" d="M58.3,16.7c1.4-1.9,2.9-3.6,4.3-5.4h6.1l-7.3,9.4,7.3,9.3h-6.2l-4.2-5.3c-1.4,1.8-2.8,3.5-4.2,5.3h-6.3c2.5-3.1,4.9-6.2,7.4-9.3l-7.4-9.4h6.2l4.3,5.4Z"/>
        <path class="st0" d="M76.1,27.7v10.1l-4.9.5h-.5V11.2h3.3l1.4,2.8c1.3-2.1,4.3-3.4,6.8-3.4,4.9,0,8.7,3.9,8.7,9.9s-4.2,9.9-9,9.9-4.9-1.1-5.9-2.8h0ZM85.5,20.6c0-3.6-2.3-5.6-4.6-5.6s-4.7,1.8-4.7,5.6,2.3,5.6,4.7,5.6,4.7-1.9,4.7-5.6h0Z"/>
        <path class="st0" d="M98.4,30h-5.3V.5l4.9-.5h.5v30Z"/>
        <path class="st0" d="M101.3,20.5c0-5.9,4.4-9.9,10.2-9.9s10.2,4.1,10.2,9.9-4.4,10-10.2,10-10.1-4.2-10.1-10ZM116.2,20.5c0-3.8-2.4-5.7-4.8-5.7s-4.7,1.9-4.7,5.7,2.4,5.7,4.8,5.7,4.7-2,4.7-5.7Z"/>
        <path class="st0" d="M123.2,11.2h3.2c.5.8,1,1.5,1.4,2.3.7-1.6,2.7-2.9,4.5-2.9s2.2.4,2.7.8l-.9,4.8h-.3c-.5-.2-1.2-.4-2.2-.4s-2.4.5-3.1,1.6v12.5h-5.3V11.2h0Z"/>
        <path class="st0" d="M140.6,21.8c.2,2.4,2.5,4.4,6,4.4s4-.8,5.2-1.5l1.9,3.6c-2.2,1.5-5.3,2.2-7.8,2.2-6.5,0-10.7-4.5-10.7-9.9s4.7-9.9,9.6-9.9,9.4,3.4,9.4,10.1,0,.7,0,1h-13.6ZM148.8,18.5c-.2-2.4-2.1-3.6-3.9-3.6s-3.8,1.7-4,3.6h7.9,0Z"/>
      </g>
      <g>
        <path class="st0" d="M40.8,63.2l-11.7,29.7h-2.1l-6.8-18.2-6.8,18.2h-2.1L0,63.2h6.2l6.3,16.9,6.9-17.2h1.8l7.1,17.4,6.7-17.1h5.8Z"/>
        <path class="st0" d="M41.9,84.4c.2,2.4,2.5,4.4,6,4.4s4-.8,5.2-1.5l1.9,3.6c-2.2,1.6-5.3,2.2-7.8,2.2-6.5,0-10.7-4.5-10.7-9.9s4.7-9.9,9.7-9.9,9.3,3.4,9.3,10.1,0,.7,0,1.1h-13.6ZM50.1,81.2c-.2-2.3-2.1-3.7-3.9-3.7s-3.8,1.7-4,3.7h7.9Z"/>
        <path class="st0" d="M62.1,84.4c.2,2.4,2.5,4.4,6,4.4s4-.8,5.2-1.5l1.9,3.6c-2.2,1.6-5.3,2.2-7.8,2.2-6.5,0-10.7-4.5-10.7-9.9s4.7-9.9,9.7-9.9,9.3,3.4,9.3,10.1,0,.7,0,1.1c0,0-13.6,0-13.6,0ZM70.3,81.2c-.2-2.3-2.1-3.7-3.9-3.7s-3.8,1.7-4,3.7h7.9Z"/>
        <path class="st0" d="M83.6,81.2l7-7.3h6.4l-8.3,8.8,8.8,9.9h-6.9l-7-7.9v7.9h-5.3v-29.5l4.9-.5h.5v18.5Z"/>
        <path class="st0" d="M100.9,84.4c.2,2.4,2.5,4.4,6,4.4s4-.8,5.2-1.5l1.9,3.6c-2.2,1.6-5.3,2.2-7.8,2.2-6.5,0-10.7-4.5-10.7-9.9s4.7-9.9,9.7-9.9,9.3,3.4,9.3,10.1,0,.7,0,1.1h-13.6ZM109.1,81.2c-.2-2.3-2.1-3.7-3.9-3.7s-3.8,1.7-4,3.7h7.9Z"/>
        <path class="st0" d="M121.7,76c1.2-1.5,3.5-2.7,6.2-2.7,4.1,0,7.8,2.8,7.8,7.3v11.9h-5.4v-11c0-2.3-1.8-3.9-3.9-3.9s-4,1.5-4,3.9v11.1h-5.3v-18.7h3.3l1.4,2.1h0Z"/>
        <path class="st0" d="M137.7,83.2c0-6.2,4-9.9,8.9-9.9s5.1,1.3,6,3.3v-13.4l4.9-.5h.5v29.9h-3.3l-1.4-2.7c-1.1,1.8-3.9,3.3-6.6,3.3-4.9,0-8.9-3.8-8.9-10h0ZM152.5,83.2c0-3.7-2.4-5.5-4.7-5.5s-4.7,1.8-4.7,5.5,2.3,5.6,4.7,5.6,4.7-2.1,4.7-5.6Z"/>
      </g>
      <g>
        <path class="st0" d="M108,35.9l-10.6,17.5v11.9h-5.7v-11.9l-10.5-17.5h6.7l6.8,11.5,6.9-11.5h6.4,0Z"/>
        <path class="st0" d="M100,55.9c0-5.9,4.4-9.9,10.2-9.9s10.2,4.1,10.2,9.9-4.4,10-10.2,10-10.1-4.2-10.1-10h0ZM114.9,55.9c0-3.8-2.4-5.7-4.8-5.7s-4.7,1.9-4.7,5.7,2.4,5.7,4.8,5.7,4.7-2,4.7-5.7Z"/>
        <path class="st0" d="M135.4,63.1c-1.2,1.6-3.5,2.8-6.2,2.8-4.1,0-7.6-2.9-7.6-7.4v-11.9h5.4v11c0,2.4,1.7,3.9,3.9,3.9s3.9-1.5,3.9-3.9v-11.1h5.3v18.7h-3.6l-1.1-2.2h0Z"/>
        <path class="st0" d="M142.7,46.6h3.2c.5.8,1,1.5,1.4,2.3.7-1.5,2.7-2.8,4.5-2.8s2.2.4,2.7.8l-.9,4.8h-.3c-.5-.2-1.2-.4-2.2-.4s-2.4.5-3.1,1.6v12.5h-5.3v-18.7h0Z"/>
      </g>
    </g>
  </g>
</svg>