<?xml version="1.0" encoding="UTF-8"?>
<svg id="Layer_2" data-name="Layer 2" xmlns="http://www.w3.org/2000/svg" viewBox="0 0 157.94 93.2">
  <defs>
    <style>
      .cls-1 {
        fill: #fcf6ef;
        stroke-width: 0px;
      }
    </style>
  </defs>
  <g id="Layer_1-2" data-name="Layer 1">
    <g>
      <g>
        <path class="cls-1" d="m46.56,25.17v4.78h-18.79V.5h18.37v4.78h-12.71v7.34h10.49v4.78h-10.49v7.76h13.13Z"/>
        <path class="cls-1" d="m58.35,16.69c1.43-1.85,2.89-3.65,4.32-5.45h6.08l-7.34,9.4,7.34,9.31h-6.25l-4.19-5.29c-1.43,1.76-2.81,3.52-4.2,5.29h-6.29c2.47-3.06,4.91-6.17,7.38-9.27l-7.38-9.44h6.25l4.28,5.45Z"/>
        <path class="cls-1" d="m76.1,27.73v10.11l-4.87.54h-.46V11.24h3.27l1.38,2.81c1.34-2.1,4.32-3.4,6.84-3.4,4.87,0,8.72,3.86,8.72,9.94s-4.15,9.9-9.02,9.9c-2.35,0-4.95-1.09-5.87-2.77Zm9.44-7.13c0-3.65-2.27-5.58-4.61-5.58s-4.74,1.8-4.74,5.58c0,3.52,2.35,5.58,4.7,5.58s4.66-1.85,4.66-5.58Z"/>
        <path class="cls-1" d="m98.41,29.95h-5.33V.5l4.87-.5h.46v29.95Z"/>
        <path class="cls-1" d="m101.31,20.55c0-5.87,4.45-9.9,10.19-9.9s10.15,4.07,10.15,9.9-4.45,9.98-10.23,9.98-10.11-4.19-10.11-9.98Zm14.89,0c0-3.78-2.43-5.66-4.78-5.66s-4.74,1.89-4.74,5.66,2.43,5.7,4.78,5.7,4.74-1.97,4.74-5.7Z"/>
        <path class="cls-1" d="m123.21,11.24h3.23c.46.8.96,1.51,1.43,2.31.71-1.55,2.73-2.85,4.49-2.85,1.34,0,2.22.42,2.73.75l-.88,4.78-.29.08c-.5-.25-1.17-.5-2.22-.5-1.13,0-2.43.5-3.15,1.59v12.54h-5.33V11.24Z"/>
        <path class="cls-1" d="m140.57,21.77c.17,2.39,2.47,4.4,6.04,4.4,2.01,0,4.03-.75,5.2-1.47l1.89,3.61c-2.18,1.55-5.29,2.18-7.76,2.18-6.5,0-10.74-4.53-10.74-9.9,0-6.04,4.66-9.94,9.65-9.94,4.7,0,9.35,3.36,9.35,10.07,0,.34-.04.71-.04,1.05h-13.59Zm8.22-3.23c-.17-2.35-2.1-3.65-3.9-3.65-1.97,0-3.82,1.72-3.98,3.65h7.89Z"/>
      </g>
      <g>
        <path class="cls-1" d="m40.81,63.17l-11.66,29.74h-2.1l-6.84-18.16-6.84,18.16h-2.06L0,63.17h6.21l6.33,16.86,6.88-17.16h1.8l7.05,17.41,6.71-17.11h5.83Z"/>
        <path class="cls-1" d="m41.91,84.43c.17,2.39,2.48,4.4,6.04,4.4,2.01,0,4.03-.75,5.2-1.47l1.89,3.61c-2.18,1.55-5.29,2.18-7.76,2.18-6.5,0-10.74-4.53-10.74-9.9,0-6.04,4.66-9.94,9.65-9.94,4.7,0,9.35,3.36,9.35,10.07,0,.34-.04.71-.04,1.05h-13.59Zm8.22-3.23c-.17-2.35-2.1-3.65-3.9-3.65-1.97,0-3.82,1.72-3.99,3.65h7.89Z"/>
        <path class="cls-1" d="m62.13,84.43c.17,2.39,2.48,4.4,6.04,4.4,2.01,0,4.03-.75,5.2-1.47l1.89,3.61c-2.18,1.55-5.29,2.18-7.76,2.18-6.5,0-10.74-4.53-10.74-9.9,0-6.04,4.66-9.94,9.65-9.94,4.7,0,9.35,3.36,9.35,10.07,0,.34-.04.71-.04,1.05h-13.59Zm8.22-3.23c-.17-2.35-2.1-3.65-3.9-3.65-1.97,0-3.82,1.72-3.99,3.65h7.89Z"/>
        <path class="cls-1" d="m83.6,81.2l7-7.3h6.38l-8.35,8.85,8.81,9.86h-6.88l-6.96-7.93v7.93h-5.33v-29.45l4.87-.5h.46v18.54Z"/>
        <path class="cls-1" d="m100.89,84.43c.17,2.39,2.48,4.4,6.04,4.4,2.01,0,4.03-.75,5.2-1.47l1.89,3.61c-2.18,1.55-5.29,2.18-7.76,2.18-6.5,0-10.74-4.53-10.74-9.9,0-6.04,4.66-9.94,9.65-9.94,4.7,0,9.35,3.36,9.35,10.07,0,.34-.04.71-.04,1.05h-13.59Zm8.22-3.23c-.17-2.35-2.1-3.65-3.9-3.65-1.97,0-3.82,1.72-3.99,3.65h7.89Z"/>
        <path class="cls-1" d="m121.74,76.04c1.17-1.51,3.52-2.73,6.21-2.73,4.11,0,7.76,2.85,7.76,7.34v11.95h-5.41v-11.03c0-2.27-1.76-3.9-3.9-3.9-1.85,0-4.03,1.47-4.03,3.86v11.07h-5.33v-18.71h3.27l1.43,2.14Z"/>
        <path class="cls-1" d="m137.72,83.22c0-6.17,3.99-9.9,8.85-9.9,2.31,0,5.12,1.26,6,3.27v-13.42l4.87-.5h.5v29.95h-3.27l-1.43-2.73c-1.05,1.85-3.86,3.31-6.63,3.31-4.91,0-8.89-3.78-8.89-9.98Zm14.81,0c0-3.69-2.35-5.54-4.74-5.54s-4.66,1.8-4.66,5.54,2.31,5.62,4.66,5.62,4.74-2.1,4.74-5.62Z"/>
      </g>
      <g>
        <path class="cls-1" d="m108,35.86l-10.61,17.53v11.91h-5.7v-11.91l-10.53-17.53h6.67l6.84,11.49,6.92-11.49h6.42Z"/>
        <path class="cls-1" d="m100.03,55.91c0-5.87,4.45-9.9,10.19-9.9s10.15,4.07,10.15,9.9-4.45,9.98-10.24,9.98-10.11-4.2-10.11-9.98Zm14.89,0c0-3.78-2.43-5.66-4.78-5.66s-4.74,1.89-4.74,5.66,2.43,5.7,4.78,5.7,4.74-1.97,4.74-5.7Z"/>
        <path class="cls-1" d="m135.4,63.12c-1.17,1.59-3.52,2.77-6.21,2.77-4.11,0-7.59-2.89-7.59-7.38v-11.91h5.37v11.03c0,2.43,1.72,3.9,3.9,3.9,1.8,0,3.9-1.47,3.9-3.86v-11.07h5.33v18.71h-3.57l-1.13-2.18Z"/>
        <path class="cls-1" d="m142.74,46.6h3.23c.46.8.96,1.51,1.43,2.31.71-1.55,2.73-2.85,4.49-2.85,1.34,0,2.22.42,2.73.75l-.88,4.78-.29.08c-.5-.25-1.17-.5-2.22-.5-1.13,0-2.43.5-3.15,1.59v12.54h-5.33v-18.71Z"/>
      </g>
    </g>
  </g>
</svg>