<?xml version="1.0" encoding="UTF-8"?>
<svg id="Layer_2" xmlns="http://www.w3.org/2000/svg" width="32" height="32" version="1.1" viewBox="0 0 32 32">
  <!-- Generator: Adobe Illustrator 29.1.0, SVG Export Plug-In . SVG Version: 2.1.0 Build 142)  -->
  <g id="Layer_1-2">
    <g>
      <g>
        <path d="M9.6,11.8v.9h-3.7v-5.8h3.6v.9h-2.5v1.4h2.1v.9h-2.1v1.5h2.6Z" style="fill: #35695a;"/>
        <path d="M12,10.1c.3-.4.6-.7.8-1.1h1.2l-1.4,1.8,1.4,1.8h-1.2l-.8-1c-.3.3-.6.7-.8,1h-1.2c.5-.6,1-1.2,1.4-1.8l-1.4-1.9h1.2l.8,1.1Z" style="fill: #35695a;"/>
        <path d="M15.4,12.3v2h-1c0,.1,0,.1,0,.1v-5.3h.6l.3.6c.3-.4.8-.7,1.3-.7,1,0,1.7.8,1.7,2s-.8,1.9-1.8,1.9-1-.2-1.2-.5h0ZM17.3,10.9c0-.7-.4-1.1-.9-1.1s-.9.4-.9,1.1.5,1.1.9,1.1.9-.4.9-1.1h0Z" style="fill: #35695a;"/>
        <path d="M19.8,12.7h-1v-5.8h1c0,0,0,0,0,0v5.9Z" style="fill: #35695a;"/>
        <path d="M20.4,10.9c0-1.2.9-1.9,2-1.9s2,.8,2,1.9-.9,2-2,2-2-.8-2-2ZM23.3,10.9c0-.7-.5-1.1-.9-1.1s-.9.4-.9,1.1.5,1.1.9,1.1.9-.4.9-1.1Z" style="fill: #35695a;"/>
        <path d="M24.7,9.1h.6c0,.2.2.3.3.5.1-.3.5-.6.9-.6s.4,0,.5.1l-.2.9h0c0,0-.2,0-.4,0s-.5,0-.6.3v2.5h-1v-3.7h0Z" style="fill: #35695a;"/>
        <path d="M28.1,11.1c0,.5.5.9,1.2.9s.8-.1,1-.3l.4.7c-.4.3-1,.4-1.5.4-1.3,0-2.1-.9-2.1-1.9s.9-2,1.9-2,1.8.7,1.8,2,0,.1,0,.2h-2.7ZM29.7,10.5c0-.5-.4-.7-.8-.7s-.7.3-.8.7h1.5,0Z" style="fill: #35695a;"/>
      </g>
      <g>
        <path d="M8.5,19.3l-2.3,5.8h-.4l-1.3-3.6-1.3,3.6h-.4l-2.2-5.8h1.2l1.2,3.3,1.4-3.4h.4l1.4,3.4,1.3-3.4h1.1Z" style="fill: #35695a;"/>
        <path d="M8.7,23.4c0,.5.5.9,1.2.9s.8-.1,1-.3l.4.7c-.4.3-1,.4-1.5.4-1.3,0-2.1-.9-2.1-1.9s.9-2,1.9-2,1.8.7,1.8,2,0,.1,0,.2h-2.7ZM10.3,22.8c0-.5-.4-.7-.8-.7s-.7.3-.8.7h1.5Z" style="fill: #35695a;"/>
        <path d="M12.7,23.4c0,.5.5.9,1.2.9s.8-.1,1-.3l.4.7c-.4.3-1,.4-1.5.4-1.3,0-2.1-.9-2.1-1.9s.9-2,1.9-2,1.8.7,1.8,2,0,.1,0,.2c0,0-2.7,0-2.7,0ZM14.3,22.8c0-.5-.4-.7-.8-.7s-.7.3-.8.7h1.5Z" style="fill: #35695a;"/>
        <path d="M16.9,22.8l1.4-1.4h1.3l-1.6,1.7,1.7,1.9h-1.4l-1.4-1.6v1.6h-1v-5.8h1c0,0,0,0,0,0v3.6Z" style="fill: #35695a;"/>
        <path d="M20.3,23.4c0,.5.5.9,1.2.9s.8-.1,1-.3l.4.7c-.4.3-1,.4-1.5.4-1.3,0-2.1-.9-2.1-1.9s.9-2,1.9-2,1.8.7,1.8,2,0,.1,0,.2h-2.7ZM21.9,22.8c0-.5-.4-.7-.8-.7s-.7.3-.8.7h1.5Z" style="fill: #35695a;"/>
        <path d="M24.4,21.8c.2-.3.7-.5,1.2-.5.8,0,1.5.6,1.5,1.4v2.3h-1.1v-2.2c0-.4-.3-.8-.8-.8s-.8.3-.8.8v2.2h-1v-3.7h.6l.3.4h0Z" style="fill: #35695a;"/>
        <path d="M27.5,23.2c0-1.2.8-1.9,1.7-1.9s1,.2,1.2.6v-2.6h1c0,0,0,0,0,0v5.9h-.6l-.3-.5c-.2.4-.8.6-1.3.6-1,0-1.7-.7-1.7-2h0ZM30.4,23.2c0-.7-.5-1.1-.9-1.1s-.9.4-.9,1.1.5,1.1.9,1.1.9-.4.9-1.1Z" style="fill: #35695a;"/>
      </g>
      <g>
        <path d="M21.7,13.9l-2.1,3.4v2.3h-1.1v-2.3l-2.1-3.4h1.3l1.3,2.3,1.4-2.3h1.3,0Z" style="fill: #35695a;"/>
        <path d="M20.1,17.8c0-1.2.9-1.9,2-1.9s2,.8,2,1.9-.9,2-2,2-2-.8-2-2h0ZM23.1,17.8c0-.7-.5-1.1-.9-1.1s-.9.4-.9,1.1.5,1.1.9,1.1.9-.4.9-1.1Z" style="fill: #35695a;"/>
        <path d="M27.1,19.2c-.2.3-.7.5-1.2.5-.8,0-1.5-.6-1.5-1.4v-2.3h1.1v2.2c0,.5.3.8.8.8s.8-.3.8-.8v-2.2h1v3.7h-.7l-.2-.4h0Z" style="fill: #35695a;"/>
        <path d="M28.5,16h.6c0,.2.2.3.3.5.1-.3.5-.6.9-.6s.4,0,.5.1l-.2.9h0c0,0-.2,0-.4,0s-.5,0-.6.3v2.5h-1v-3.7h0Z" style="fill: #35695a;"/>
      </g>
    </g>
  </g>
</svg>