<svg xmlns="http://www.w3.org/2000/svg" viewBox="0 0 226 226"><defs><style>.cls-1{fill:none;}.cls-2{fill:#468a76;}.cls-3{fill:#35695a;}.cls-4{fill:#275c55;}.cls-5{fill:#fcf6ef;}</style></defs><g id="Layer_2" data-name="Layer 2"><g id="Layer_1-2" data-name="Layer 1"><path class="cls-1" d="M17.23,45.91c6.86-4.74,21.63-9.47,29-7.89S71,42.77,75.78,43.82s1-6.32,6.86-2.63S100,39.61,104.26,38s16.88,4.2,20.57,2.62,8.68,10.4,19.59,10c2.92-4.74,4.92-8.4,5.21-9.53,1.05-4.22,11.6-3.69,13.71-9s11.08-9,23.74-5.81c.09,0,32.41-1,38.92-1.14V0H0V49.62C4.05,49,16.52,46.4,17.23,45.91Z"/><path class="cls-2" d="M34.14,58.64c6.86-1,34-3.47,39.32,0,6.42,4.19,38.16-1.08,45.52-.25,5.6.62,17.38-4.67,25.44-17.72-10.91.37-16-11.57-19.59-10s-16.35-4.2-20.57-2.62-15.82,6.86-21.62,3.17-2.11,3.69-6.86,2.63S53.63,29.61,46.24,28s-22.15,3.15-29,7.89C16.52,36.4,4.05,39,0,39.62V93.17C17.3,88.18,30.94,59.13,34.14,58.64Z"/><path class="cls-3" d="M226,15.23c-6.51.18-38.83,1.17-38.92,1.14-12.66-3.16-21.63.53-23.74,5.81s-12.66,4.74-13.71,9c-.29,1.13-2.29,4.79-5.21,9.53C136.36,53.72,124.58,54,119,53.39c-7.36-.83-39.1,4.44-45.52.25-5.32-3.47-32.46-1-39.32,0C30.94,54.13,17.3,88.18,0,93.17V226H226Z"/><path class="cls-4" d="M200.1,149.41c-11.37,10.22-43.07,9.77-71.49,9.25-56.6-1,.71-11.93-128.61,6.24V226H226V81.53C218.11,94.81,209.57,140.88,200.1,149.41Z"/><path class="cls-5" d="M53.43,76.8H42v7.26H53.08v4.12H42v9H53.43v4.12H37.63V72.68h15.8Z"/><path class="cls-5" d="M65.39,86.37l-7.9-13.69h4.9L68,82.38l5.7-9.7h4.9L70.33,86.37,79,101.31H74.06L67.79,90.37l-6.52,10.94H56.38Z"/><path class="cls-5" d="M88.79,72.68a11.15,11.15,0,0,1,6.27,1.55,8.29,8.29,0,0,1,3.56,7,8,8,0,0,1-2.79,6.27,10.36,10.36,0,0,1-7,2.23h-2v11.63H82.48V72.68Zm-1.93,13h2c3.78,0,5.58-1.85,5.58-4.51,0-1.59-.64-4.42-5.62-4.42H86.86Z"/><path class="cls-5" d="M106.8,72.68V97.19h8.42v4.12H102.43V72.68Z"/><path class="cls-5" d="M146.22,87a14.9,14.9,0,1,1-14.9-14.85A14.53,14.53,0,0,1,146.22,87Zm-4.38,0c0-6.35-4.38-10.82-10.52-10.82S120.81,80.67,120.81,87s4.38,10.82,10.51,10.82S141.84,93.37,141.84,87Z"/><path class="cls-5" d="M156.53,72.68c3.48,0,5.71.43,7.55,1.68a8,8,0,0,1,3.4,6.74,7.86,7.86,0,0,1-6.36,8l8.93,12.23h-5.28l-8.2-11.72h-.77v11.72h-4.38V72.68Zm-.73,13.14h1.37c1.21,0,6.1-.13,6.1-4.68,0-4-3.82-4.42-6-4.42h-1.5Z"/><path class="cls-5" d="M189.57,76.8H178.16v7.26h11.07v4.12H178.16v9h11.41v4.12H173.78V72.68h15.79Z"/><path class="cls-5" d="M46.52,148.41c-.32-.18-.48-.39-.48-.62,0-.56.53-.95,1.59-1.19a7.77,7.77,0,0,0,3.09-1.21A2.79,2.79,0,0,0,51.8,143v-5a7.78,7.78,0,0,0-1.18-4.58L44.23,123.2a10.82,10.82,0,0,0-2.12-2.78,9.28,9.28,0,0,0-3-1.32,4.13,4.13,0,0,1-1.11-.49.85.85,0,0,1-.42-.76.65.65,0,0,1,.42-.62A2,2,0,0,1,39,117a31.54,31.54,0,0,1,3.89.21c1.39.09,2.55.13,3.47.13a26.43,26.43,0,0,0,3.2-.2C51.73,117,53,117,53.33,117a2,2,0,0,1,.94.24.73.73,0,0,1,.45.66.94.94,0,0,1-.49.8,3.24,3.24,0,0,1-1.11.45c-1.81.33-2.71,1-2.71,1.88A3.39,3.39,0,0,0,51,122.5l5.83,9.66c.23.32.39.48.49.48s.27-.16.41-.48l5.14-10.28a1.8,1.8,0,0,0,.28-.9c0-.84-.72-1.49-2.15-2a5.78,5.78,0,0,1-1.22-.52.81.81,0,0,1-.38-.73c0-.23.16-.43.49-.59a2.14,2.14,0,0,1,1-.24,15.89,15.89,0,0,1,2.85.21c.92.09,1.8.13,2.64.13a13,13,0,0,0,2.5-.2A10.28,10.28,0,0,0,70,117a14.36,14.36,0,0,1,1.84-.1,2.21,2.21,0,0,1,1,.24.73.73,0,0,1,.48.66c0,.6-.48,1-1.46,1.18a18.54,18.54,0,0,0-3.57,1.22,5.07,5.07,0,0,0-2,1.91l-5.35,9.16q-2,3.34-2,5.35v6.32a2.84,2.84,0,0,0,.94,2.43A9.31,9.31,0,0,0,63,146.6c1.07.24,1.6.61,1.6,1.12a.75.75,0,0,1-.45.66,1.85,1.85,0,0,1-.87.24,39.59,39.59,0,0,1-4-.21c-.42,0-1-.09-1.63-.14s-1.47-.07-2.4-.07-2.2.1-4,.28c-.46.05-1,.09-1.66.14s-1.39.07-2.23.07A1.9,1.9,0,0,1,46.52,148.41Z"/><path class="cls-5" d="M82.21,147.16a16.66,16.66,0,0,1-6.36-5.9,15.14,15.14,0,0,1,0-16.19,17.65,17.65,0,0,1,6.35-6.14A17.36,17.36,0,0,1,91,116.6a19.46,19.46,0,0,1,8.82,2.08,17.17,17.17,0,0,1,6.67,5.77,14.23,14.23,0,0,1,2.5,8.19,16.68,16.68,0,0,1-2.12,8.2,15.75,15.75,0,0,1-6.25,6.15,19.57,19.57,0,0,1-9.76,2.32A18,18,0,0,1,82.21,147.16Zm16.56-4.51a18.58,18.58,0,0,0,2.22-9.24,19,19,0,0,0-1.28-7A13.06,13.06,0,0,0,96,121.11a8.35,8.35,0,0,0-5.52-2,7.57,7.57,0,0,0-6.67,3.72A16.31,16.31,0,0,0,81.41,132a18.79,18.79,0,0,0,2.71,10.52,8.6,8.6,0,0,0,7.64,4.13A7.46,7.46,0,0,0,98.77,142.65Z"/><path class="cls-5" d="M119.4,145.56q-3.33-3.75-3.33-10.35V123.75q0-4.09-3.61-4.72a2.93,2.93,0,0,1-1.08-.45.94.94,0,0,1-.45-.8.7.7,0,0,1,.45-.59,1.85,1.85,0,0,1,.87-.24,35,35,0,0,1,3.89.21c1.57.09,2.73.13,3.47.13s1.85,0,3.34-.13a35.61,35.61,0,0,1,4-.21,2,2,0,0,1,.9.21.65.65,0,0,1,.42.62c0,.6-.68,1.11-2,1.53a3.64,3.64,0,0,0-2.39,1.46,5.79,5.79,0,0,0-.67,3.12v10.42q0,10.91,8.48,10.91a8.41,8.41,0,0,0,6.46-2.54q2.35-2.53,2.36-8.16V124.8a9.31,9.31,0,0,0-.59-4,4.13,4.13,0,0,0-2.68-1.63,5.4,5.4,0,0,1-1.38-.59.91.91,0,0,1-.49-.8.65.65,0,0,1,.45-.62,2.37,2.37,0,0,1,1-.21,27.35,27.35,0,0,1,2.92.14c.92.09,1.73.14,2.43.14s1.57,0,2.5-.14a26.35,26.35,0,0,1,2.84-.14,2.19,2.19,0,0,1,.94.21.65.65,0,0,1,.45.62,1,1,0,0,1-.45.77,2.68,2.68,0,0,1-1.07.48,4.06,4.06,0,0,0-2.75,1.56,5.84,5.84,0,0,0-.73,3.16l-.07,9.45a20.16,20.16,0,0,1-1.56,8,13.57,13.57,0,0,1-4.72,5.87,13,13,0,0,1-7.68,2.22Q122.74,149.31,119.4,145.56Z"/><path class="cls-5" d="M175.61,145.15a40,40,0,0,1-2.71-3.93q-1.67-2.67-2.7-4.76a3.44,3.44,0,0,0-1.53-1.42,5.14,5.14,0,0,0-2.43-.59,1.45,1.45,0,0,0-.87.35,1.08,1.08,0,0,0-.45.9v7.43a3,3,0,0,0,.76,2.29,5.71,5.71,0,0,0,2.78,1.05q1.53.27,1.53,1.11a.74.74,0,0,1-.42.66,1.67,1.67,0,0,1-.83.24c-.84,0-2.13,0-3.89-.14l-3.61-.07c-.84,0-2.13,0-3.89.14s-2.92.14-3.75.14a1.62,1.62,0,0,1-.87-.28.76.76,0,0,1-.45-.62c0-.61.51-1,1.53-1.18a8.1,8.1,0,0,0,3.05-1.12,2.6,2.6,0,0,0,1-2.29V123.2a4,4,0,0,0-.83-2.74,4.7,4.7,0,0,0-2.78-1.29,2.67,2.67,0,0,1-1.08-.49,1,1,0,0,1-.45-.83.73.73,0,0,1,.42-.66,1.78,1.78,0,0,1,.9-.24c.74,0,1.47,0,2.19.1s1.24.11,1.56.11a24.84,24.84,0,0,0,3.27.2c1,0,2.13-.07,3.47-.2q4.59-.21,5.07-.21a18.71,18.71,0,0,1,9,1.87,6.33,6.33,0,0,1,3.4,6,6.83,6.83,0,0,1-1.66,4.79,9.09,9.09,0,0,1-4.1,2.78c-.47.14-.6.41-.42.83a33.14,33.14,0,0,0,2.88,5.28,42.81,42.81,0,0,0,3.58,4.79,10.3,10.3,0,0,0,3.06,2.22,10.55,10.55,0,0,0,3,1.18c.84.14,1.25.47,1.25,1s-.58.92-1.73,1.25a15.2,15.2,0,0,1-4,.48A10.35,10.35,0,0,1,175.61,145.15Zm-.69-19.45a5.66,5.66,0,0,0-2.19-4.79,8.36,8.36,0,0,0-5.24-1.67,3.54,3.54,0,0,0-2,.45,1.75,1.75,0,0,0-.66,1.56l.07,9a1.81,1.81,0,0,0,.55,1.53,2.48,2.48,0,0,0,1.53.42Q174.92,132.16,174.92,125.7Z"/><path class="cls-5" d="M41.46,164.43,47.59,180l6.26-16.64L59.91,180l6.34-15.52h3.83L59.7,189.14l-6.05-16.46-6.13,16.46-9.89-24.71Z"/><path class="cls-5" d="M85.79,167.77H76.53v5.88h9V177h-9v7.31h9.26v3.35H73V164.43H85.79Z"/><path class="cls-5" d="M103.27,167.77H94v5.88h9V177H94v7.31h9.26v3.35H90.46V164.43h12.81Z"/><path class="cls-5" d="M111.48,173.69l9-9.26h4.66l-10.48,10.51,10.55,12.71h-4.73l-8.29-10.31-.7.7v9.61h-3.55V164.43h3.55Z"/><path class="cls-5" d="M141,167.77h-9.26v5.88h9V177h-9v7.31H141v3.35H128.17V164.43H141Z"/><path class="cls-5" d="M145.65,187.65V162.86l16.85,17.65V164.43h3.55v24.64L149.2,171.42v16.23Z"/><path class="cls-5" d="M176.48,164.43c3.24,0,6.06.34,8.64,2.26a11.48,11.48,0,0,1,4.45,9.36,11.08,11.08,0,0,1-4.66,9.37c-2.72,1.91-5.26,2.23-8.5,2.23h-4.8V164.43Zm-1.32,19.87h1.53a10.07,10.07,0,0,0,6.16-1.63,8.17,8.17,0,0,0,3.17-6.62,8.27,8.27,0,0,0-3.13-6.68,10.42,10.42,0,0,0-6.2-1.6h-1.53Z"/></g></g></svg>