<svg xmlns="http://www.w3.org/2000/svg" viewBox="0 0 2161.97 213.82"><defs><style>.cls-1{fill:#54a68e;}.cls-2{fill:#468a76;}.cls-3{fill:#35695a;}.cls-4{fill:#275c55;}.cls-5{fill:#fcf6f0;}</style></defs><g id="Layer_2" data-name="Layer 2"><g id="Layer_1-2" data-name="Layer 1"><path class="cls-1" d="M0,66.66s16.27-8.43,19.43-8.43S39,66.66,41.06,66.66s19.51-2.11,22.15-4.22,13.72-6.32,16.35-6.32,11.08-1.59,13.19,0,6.33,6.15,13.19,4.92,16.88,3.51,20,3.51,15.83-7.73,19-9.14,22.68,2.29,25.32,2.29,23.21-6.33,25.85-6.33,17.93,7.91,20,7.65,5.27-2.38,7.38-2.38,4.22,3.7,5.81,2.38,17.4-5.54,21.62-5.54,23.21,1.05,26.38,10,23.29,9,23.29,9,20.49,6.33,25.76,7.38,33.23,3.69,34.81,3.69,24.27,1.06,27.43,0,17.87.61,19.65.47,11.28,1,13.25,1,6.53-4.55,16.62-1.38c0,0,9.69-3,14.64-2.18s12.66,4.15,13.25,3.56,19.19,6.53,21.16,6.53,12.66-1.19,15.43,0,9.7-1.58,13.26-1.39,23.73,1.59,27.29,1.68,14.24,1.69,17,0,27.5-5.24,28.68-5.24,30.47,1.59,35.21.79,36.2,3.17,39.56,3.76S907.18,210.46,907.18,210.46L0,213.82Z"/></g><g id="Layer_2-2" data-name="Layer 2"><path class="cls-2" d="M1092.82,15.19c-3.69,1.58-16.35-4.2-20.57-2.62s-15.83,6.86-21.63,3.17-2.11,3.69-6.86,2.64-22.15-4.22-29.53-5.81-22.16,3.15-29,7.89c-.7.49-13.18,3.06-17.23,3.71-4.74,2.11-11.76-4.67-15.45-4.15s-29,7.39-31.12,6.86.53,6.33-2.11,6.33-42.2,25.32-49,22.68S831.74,42.7,829.63,44.81s-9.49,0-13.71.53-17.41,12.13-21.63,12.13-29,9.5-33.23,9.5-21.1-.53-24.79.53-11.08,4.74-13.72,4.22S708.84,67,707.26,67,670.33,77.52,666.64,79.1s-28,24.79-30.07,23.74-33.75-1.59-42.19,0-37.45-.53-41.15-.53-45.89-21.1-61.71-20-37.45,1.79-45.36,5.9-32.71,12.56-35.34,13.08S356,137.12,349.1,134s-23.21-11.08-29.54-7.39S220.55,211.4,210,211.4l1516-1.21-6.47-62S1284,126.79,1272.34,127.31,1116.09,23.64,1112.4,25.22C1101.5,25.59,1096.4,13.65,1092.82,15.19Z"/><path class="cls-3" d="M1155.06,1.17C1142.4-2,1133.43,1.7,1131.32,7s-12.65,4.75-13.71,9c-.28,1.12-2.28,4.79-5.21,9.53-8.06,13.05-19.84,13.34-25.44,12.71-7.35-.82-39.09,4.45-45.52.26-5.32-3.47-32.46-1.06-39.32,0C998.93,38.93,985.29,73,968,78c-26.9,2.64-109.87,20.38-117.78,20.9S713.06,188.18,702,189.39H1719.5V148.48s-311.41-32.22-330.73-36.77S1206.64,3.19,1194,0c-6.51.17-38.82,1.17-38.92,1.14"/><path class="cls-4" d="M1168.08,134.13c-11.36,10.23-43.06,9.84-71.49,9.33-56.59-1,.72-12-128.61,6.16C871.49,142.75,788.69,122,782.48,122c-10.23,0-63.64,35.22-85.23,35.22S627.93,174.24,612,173.1s-43.18,10.23-88.64,10.23S445,194.69,405.2,191.28,300.66,210.8,300.66,210.8H2162V53.3s-26.63-12.11-48.22-16.66-40.69,3.59-49.78-.48-37.24,7.85-45.2-.95c-3.9-4.31-139.29,27.11-144.89,24.09-14.78-7.95-102.59,25.82-108.27,14.45s-54.55-23.86-67-32.95-40.91-19.32-50-19.32S1578.5,37,1580.77,59.3s-91.9,16-102.13,19.41-87.83-30.64-113.36-12.46C1350,77.12,1279.07,22,1270,22s-11.37,0-19.32,8-21.59,17-28.41,19.32-16.9,6.78-28.27,17C1186.09,79.53,1177.55,125.61,1168.08,134.13Z"/><path class="cls-5" d="M1021,60.87h-11.42v7.25h11.07v4.12h-11.07v9H1021v4.12h-15.8V56.75H1021Z"/><path class="cls-5" d="M1033,70.44l-7.9-13.69H1030l5.58,9.7,5.71-9.7h4.9l-8.24,13.69,8.62,14.94h-4.89l-6.27-10.95-6.52,10.95H1024Z"/><path class="cls-5" d="M1056.39,56.75a11.19,11.19,0,0,1,6.26,1.54,8.29,8.29,0,0,1,3.57,7,8,8,0,0,1-2.79,6.26,10.32,10.32,0,0,1-7,2.24h-2V85.38h-4.38V56.75Zm-1.93,13h2c3.78,0,5.58-1.84,5.58-4.51,0-1.58-.64-4.42-5.62-4.42h-1.93Z"/><path class="cls-5" d="M1074.4,56.75V81.26h8.42v4.12H1070V56.75Z"/><path class="cls-5" d="M1113.82,71.09a14.9,14.9,0,1,1-14.9-14.86A14.53,14.53,0,0,1,1113.82,71.09Zm-4.38,0c0-6.36-4.38-10.82-10.52-10.82s-10.51,4.46-10.51,10.82,4.37,10.81,10.51,10.81S1109.44,77.44,1109.44,71.09Z"/><path class="cls-5" d="M1124.13,56.75c3.48,0,5.71.43,7.55,1.67a8,8,0,0,1,3.4,6.74,7.87,7.87,0,0,1-6.36,8l8.93,12.23h-5.28l-8.2-11.72h-.77V85.38H1119V56.75Zm-.73,13.13h1.37c1.21,0,6.1-.13,6.1-4.68,0-4-3.82-4.42-6-4.42h-1.5Z"/><path class="cls-5" d="M1157.17,60.87h-11.42v7.25h11.08v4.12h-11.08v9h11.42v4.12h-15.79V56.75h15.79Z"/><path class="cls-5" d="M1014.12,132.48c-.32-.19-.49-.4-.49-.63,0-.55.54-.95,1.6-1.18a8,8,0,0,0,3.09-1.21,2.8,2.8,0,0,0,1.08-2.4v-5a7.89,7.89,0,0,0-1.18-4.59l-6.39-10.2a10.82,10.82,0,0,0-2.12-2.78,9.07,9.07,0,0,0-3-1.32,4.13,4.13,0,0,1-1.11-.49.86.86,0,0,1-.42-.76.67.67,0,0,1,.42-.63,2,2,0,0,1,.9-.21,31.54,31.54,0,0,1,3.89.21c1.39.1,2.55.14,3.47.14a24.56,24.56,0,0,0,3.2-.21c2.22-.14,3.49-.21,3.82-.21a2,2,0,0,1,.93.25.73.73,0,0,1,.46.66,1,1,0,0,1-.49.8,3.65,3.65,0,0,1-1.11.45c-1.81.32-2.71,1-2.71,1.87a3.34,3.34,0,0,0,.56,1.53l5.83,9.65c.23.33.39.49.49.49s.27-.16.41-.49l5.14-10.27a1.83,1.83,0,0,0,.28-.91c0-.83-.72-1.48-2.15-1.94a6.36,6.36,0,0,1-1.22-.52.82.82,0,0,1-.38-.73c0-.23.16-.43.49-.59a2.15,2.15,0,0,1,1-.25,16,16,0,0,1,2.85.21,24.32,24.32,0,0,0,2.63.14,12.75,12.75,0,0,0,2.5-.21,9.6,9.6,0,0,0,1.15-.1,14.22,14.22,0,0,1,1.84-.11,2.19,2.19,0,0,1,1,.25.73.73,0,0,1,.49.66c0,.6-.49,1-1.46,1.18a18.36,18.36,0,0,0-3.58,1.21,5.19,5.19,0,0,0-2,1.91l-5.35,9.17c-1.35,2.22-2,4-2,5.35V127a2.84,2.84,0,0,0,.94,2.43,9.52,9.52,0,0,0,3.16,1.25c1.07.23,1.6.6,1.6,1.11a.73.73,0,0,1-.45.66,1.87,1.87,0,0,1-.87.25,39.59,39.59,0,0,1-4-.21c-.42,0-1-.1-1.63-.14s-1.47-.07-2.4-.07-2.2.09-4,.28l-1.66.14c-.65,0-1.39.06-2.23.06A1.85,1.85,0,0,1,1014.12,132.48Z"/><path class="cls-5" d="M1049.8,131.23a16.8,16.8,0,0,1-6.35-5.91,15.13,15.13,0,0,1,0-16.18,17.6,17.6,0,0,1,6.35-6.15,17.35,17.35,0,0,1,8.82-2.32,19.46,19.46,0,0,1,8.82,2.08,17.23,17.23,0,0,1,6.67,5.76,14.27,14.27,0,0,1,2.5,8.2,16.68,16.68,0,0,1-2.12,8.2,15.79,15.79,0,0,1-6.25,6.14,19.6,19.6,0,0,1-9.76,2.33A18,18,0,0,1,1049.8,131.23Zm16.57-4.52a18.58,18.58,0,0,0,2.22-9.24,19.21,19.21,0,0,0-1.28-7,13.09,13.09,0,0,0-3.68-5.31,8.36,8.36,0,0,0-5.53-2,7.58,7.58,0,0,0-6.66,3.71A16.35,16.35,0,0,0,1049,116a18.89,18.89,0,0,0,2.7,10.52,8.65,8.65,0,0,0,7.65,4.13A7.47,7.47,0,0,0,1066.37,126.71Z"/><path class="cls-5" d="M1087,129.63q-3.33-3.75-3.33-10.35V107.82c0-2.73-1.2-4.31-3.61-4.72a3.11,3.11,0,0,1-1.08-.45,1,1,0,0,1-.45-.8.7.7,0,0,1,.45-.59,1.87,1.87,0,0,1,.87-.25,35,35,0,0,1,3.89.21c1.57.1,2.73.14,3.47.14s1.85,0,3.34-.14a35.56,35.56,0,0,1,4-.21,2,2,0,0,1,.91.21.68.68,0,0,1,.41.63q0,.9-2,1.53a3.68,3.68,0,0,0-2.4,1.45,6,6,0,0,0-.66,3.13v10.42q0,10.91,8.48,10.9a8.41,8.41,0,0,0,6.46-2.53q2.36-2.53,2.36-8.16v-9.73a9.29,9.29,0,0,0-.59-4,4.09,4.09,0,0,0-2.68-1.63,6.55,6.55,0,0,1-1.39-.59.94.94,0,0,1-.48-.8.67.67,0,0,1,.45-.63,2.37,2.37,0,0,1,1-.21c1,0,2,0,2.91.14a22.87,22.87,0,0,0,2.44.14,23.36,23.36,0,0,0,2.5-.14c.92-.09,1.87-.14,2.84-.14a2.19,2.19,0,0,1,.94.21.67.67,0,0,1,.45.63,1,1,0,0,1-.45.76,2.68,2.68,0,0,1-1.08.49,4.06,4.06,0,0,0-2.74,1.56,5.82,5.82,0,0,0-.73,3.16l-.07,9.45a20.2,20.2,0,0,1-1.56,8,13.57,13.57,0,0,1-4.72,5.87,13,13,0,0,1-7.68,2.22Q1090.34,133.38,1087,129.63Z"/><path class="cls-5" d="M1143.21,129.21a37.91,37.91,0,0,1-2.71-3.92q-1.66-2.67-2.7-4.76a3.44,3.44,0,0,0-1.53-1.42,5,5,0,0,0-2.43-.59,1.44,1.44,0,0,0-.87.34,1.11,1.11,0,0,0-.45.91v7.43a3,3,0,0,0,.76,2.29,5.68,5.68,0,0,0,2.78,1q1.53.28,1.53,1.11a.73.73,0,0,1-.42.66,1.59,1.59,0,0,1-.83.25c-.84,0-2.13-.05-3.89-.14l-3.61-.07c-.84,0-2.13,0-3.89.14s-2.92.14-3.75.14a1.71,1.71,0,0,1-.87-.28c-.3-.19-.45-.39-.45-.63,0-.6.5-1,1.52-1.18a8.28,8.28,0,0,0,3.06-1.11,2.61,2.61,0,0,0,1-2.29V107.27a4.05,4.05,0,0,0-.83-2.75,4.76,4.76,0,0,0-2.78-1.28,2.82,2.82,0,0,1-1.08-.49,1,1,0,0,1-.45-.83.73.73,0,0,1,.42-.66,1.79,1.79,0,0,1,.9-.25c.74,0,1.47,0,2.19.11s1.24.1,1.56.1a23.14,23.14,0,0,0,3.27.21,34.11,34.11,0,0,0,3.47-.21q4.59-.21,5.07-.21a18.71,18.71,0,0,1,9,1.88,6.32,6.32,0,0,1,3.4,6,6.87,6.87,0,0,1-1.66,4.8,9.07,9.07,0,0,1-4.1,2.77c-.47.14-.6.42-.42.84a33.14,33.14,0,0,0,2.88,5.28,42.81,42.81,0,0,0,3.58,4.79,10.34,10.34,0,0,0,3.06,2.22,10.87,10.87,0,0,0,3,1.18c.84.14,1.25.46,1.25,1s-.58.93-1.73,1.25a14.77,14.77,0,0,1-4,.49A10.34,10.34,0,0,1,1143.21,129.21Zm-.69-19.44a5.67,5.67,0,0,0-2.19-4.8,8.41,8.41,0,0,0-5.24-1.66,3.54,3.54,0,0,0-2,.45,1.75,1.75,0,0,0-.66,1.56l.07,9a1.81,1.81,0,0,0,.55,1.53,2.48,2.48,0,0,0,1.53.41Q1142.52,116.22,1142.52,109.77Z"/><path class="cls-5" d="M1009.06,148.49l6.13,15.53,6.26-16.64,6.06,16.64,6.34-15.53h3.82l-10.37,24.72-6.06-16.47-6.12,16.47-9.89-24.72Z"/><path class="cls-5" d="M1053.39,151.84h-9.26v5.88h9v3.34h-9v7.31h9.26v3.34h-12.81V148.49h12.81Z"/><path class="cls-5" d="M1070.87,151.84h-9.26v5.88h9v3.34h-9v7.31h9.26v3.34h-12.81V148.49h12.81Z"/><path class="cls-5" d="M1079.08,157.75l9-9.26h4.67L1082.25,159l10.55,12.7h-4.74l-8.28-10.3-.7.69v9.61h-3.55V148.49h3.55Z"/><path class="cls-5" d="M1108.58,151.84h-9.26v5.88h9v3.34h-9v7.31h9.26v3.34h-12.81V148.49h12.81Z"/><path class="cls-5" d="M1113.25,171.71V146.93l16.85,17.65V148.49h3.55v24.65l-16.85-17.65v16.22Z"/><path class="cls-5" d="M1144.08,148.49c3.24,0,6.06.35,8.64,2.27a11.48,11.48,0,0,1,4.45,9.36,11.06,11.06,0,0,1-4.66,9.36c-2.72,1.92-5.26,2.23-8.5,2.23h-4.8V148.49Zm-1.32,19.88h1.53a10,10,0,0,0,6.16-1.64,8.14,8.14,0,0,0,3.17-6.61,8.26,8.26,0,0,0-3.13-6.68,10.35,10.35,0,0,0-6.2-1.6h-1.53Z"/></g></g></svg>